HIERARCHY
ROOT root
{
	OFFSET 0.000000 0.000000 0.000000
	CHANNELS 6 Xposition Yposition Zposition Zrotation Yrotation Xrotation
	JOINT lhip
	{
		OFFSET 0.058581 -0.082280 -0.017664
		CHANNELS 3 Zrotation Yrotation Xrotation
		JOINT lknee
		{
			OFFSET 0.043451 -0.386469 0.008037
			CHANNELS 3 Zrotation Yrotation Xrotation
			JOINT lankle
			{
				OFFSET -0.014790 -0.426874 -0.037428
				CHANNELS 3 Zrotation Yrotation Xrotation
				JOINT ltoe
				{
					OFFSET 0.041054 -0.060286 0.122042
					CHANNELS 3 Zrotation Yrotation Xrotation
					End Site
					{
						OFFSET 0.000000 0.000000 0.000000
					}
				}
			}
		}
	}
	JOINT rhip
	{
		OFFSET -0.060310 -0.090513 -0.013543
		CHANNELS 3 Zrotation Yrotation Xrotation
		JOINT rknee
		{
			OFFSET -0.043257 -0.383688 -0.004843
			CHANNELS 3 Zrotation Yrotation Xrotation
			JOINT rankle
			{
				OFFSET 0.019056 -0.420046 -0.034562
				CHANNELS 3 Zrotation Yrotation Xrotation
				JOINT rtoe
				{
					OFFSET -0.034840 -0.062106 0.130323
					CHANNELS 3 Zrotation Yrotation Xrotation
					End Site
					{
						OFFSET 0.000000 0.000000 0.000000
					}
				}
			}
		}
	}
	JOINT lowerback
	{
		OFFSET 0.004439 0.124404 -0.038385
		CHANNELS 3 Zrotation Yrotation Xrotation
		JOINT upperback
		{
			OFFSET 0.004488 0.137956 0.026820
			CHANNELS 3 Zrotation Yrotation Xrotation
			JOINT chest
			{
				OFFSET -0.002265 0.056032 0.002855
				CHANNELS 3 Zrotation Yrotation Xrotation
				JOINT lowerneck
				{
					OFFSET -0.013390 0.211636 -0.033468
					CHANNELS 3 Zrotation Yrotation Xrotation
					JOINT upperneck
					{
						OFFSET 0.010113 0.088937 0.050410
						CHANNELS 3 Zrotation Yrotation Xrotation
						End Site
						{
							OFFSET 0.000000 0.000000 0.000000
						}
					}
				}
				JOINT lclavicle
				{
					OFFSET 0.071702 0.114000 -0.018898
					CHANNELS 3 Zrotation Yrotation Xrotation
					JOINT lshoulder
					{
						OFFSET 0.122921 0.045205 -0.019046
						CHANNELS 3 Zrotation Yrotation Xrotation
						JOINT lelbow
						{
							OFFSET 0.255332 -0.015649 -0.022946
							CHANNELS 3 Zrotation Yrotation Xrotation
							JOINT lwrist
							{
								OFFSET 0.265709 0.012698 -0.007375
								CHANNELS 3 Zrotation Yrotation Xrotation
								End Site
								{
									OFFSET 0.000000 0.000000 0.000000
								}
							}
						}
					}
				}
				JOINT rclavicle
				{
					OFFSET -0.082954 0.112472 -0.023707
					CHANNELS 3 Zrotation Yrotation Xrotation
					JOINT rshoulder
					{
						OFFSET -0.113228 0.046853 -0.008472
						CHANNELS 3 Zrotation Yrotation Xrotation
						JOINT relbow
						{
							OFFSET -0.260127 -0.014369 -0.031269
							CHANNELS 3 Zrotation Yrotation Xrotation
							JOINT rwrist
							{
								OFFSET -0.269108 0.006794 -0.006027
								CHANNELS 3 Zrotation Yrotation Xrotation
								End Site
								{
									OFFSET 0.000000 0.000000 0.000000
								}
							}
						}
					}
				}
			}
		}
	}
}
MOTION
Frames: 16
Frame Time: 0.033333
-0.280116 -0.738139 1.056996 -178.137488 -0.821605 102.350362 -2.490224 -0.656033 -23.740356 -7.787027 3.555909 18.011388 2.888764 10.510822 3.286498 0.000000 -0.000000 0.000000 -3.060450 2.378467 -31.796926 2.031012 -4.200137 64.150548 7.612628 -1.762169 0.076781 0.000000 -0.000000 0.000000 -1.485886 -1.101218 30.106805 0.046656 -1.226329 2.157692 -0.054471 -0.711109 2.706917 0.963165 0.967749 -5.930915 5.360475 2.756758 -10.724398 -32.877845 -3.725272 4.833482 -51.959560 0.232441 10.151293 13.209457 -32.893924 -9.105134 6.645094 -3.018336 -11.524126 27.799828 9.093325 5.274281 53.944621 2.971135 14.420542 -11.509159 29.155256 -5.538324 3.639764 4.295130 -6.479410 
-0.280168 -0.707923 1.060705 -177.620796 -0.617310 101.766092 -2.711107 0.646703 -20.732524 -7.678227 2.040037 17.242027 2.261718 10.351438 3.220728 0.000000 -0.000000 0.000000 -3.192767 2.367260 -35.579691 0.262447 -5.246526 62.084652 5.771639 -4.258004 -3.129517 0.000000 -0.000000 0.000000 -1.185167 -2.178217 30.502060 -0.118098 -0.764910 1.976792 0.014916 -0.842736 2.870334 0.862616 1.174772 -5.799344 5.138197 2.827416 -10.780775 -32.709562 -3.465698 5.067955 -52.173709 -0.141494 9.934739 13.105089 -32.815181 -8.802580 6.748098 -2.947085 -11.914308 27.832067 9.089797 5.490376 54.176044 2.828670 14.415402 -11.330631 28.807612 -5.166510 3.649092 4.172464 -6.480018 
-0.279857 -0.677298 1.063351 -176.900234 -0.415418 101.197950 -2.726828 2.095898 -17.691481 -7.634692 0.954013 16.331085 1.576349 10.098922 3.183516 0.000000 -0.000000 0.000000 -3.316194 2.215729 -38.551497 -0.826142 -6.185564 57.104644 4.883763 -5.758507 -5.200474 0.000000 -0.000000 0.000000 -0.763686 -3.234263 30.715243 -0.242507 -0.504661 1.918906 0.135145 -1.028836 3.029697 0.735095 1.371887 -5.765816 4.954096 2.938623 -10.899856 -32.500027 -3.174938 5.318789 -52.517689 -0.485085 9.791302 13.059843 -32.754468 -8.522458 6.742704 -3.050880 -12.128652 27.805767 8.916133 5.701067 54.246233 2.781715 14.304143 -10.960456 28.443016 -4.626897 3.747085 4.069866 -6.251480 
-0.278880 -0.646176 1.064489 -176.193379 -0.234152 100.672087 -2.524707 3.507415 -14.739798 -7.592842 0.052344 15.555926 0.923630 9.856889 3.004107 0.000000 -0.000000 0.000000 -3.394671 1.992223 -40.733187 -1.147394 -6.774675 49.994980 5.126715 -6.297792 -4.709464 0.000000 -0.000000 0.000000 -0.432588 -4.091851 30.796960 -0.291430 -0.364505 2.013366 0.319748 -1.200486 3.046405 0.616161 1.382374 -5.666906 4.896569 3.120464 -11.114303 -32.401390 -2.824164 5.536679 -52.729744 -0.789064 9.739536 12.926358 -32.661791 -8.239132 6.641828 -3.313305 -11.953310 27.849584 8.624640 5.905534 54.175858 2.820157 14.170510 -10.627014 27.870168 -4.468628 3.682776 3.978833 -5.936989 
-0.277470 -0.614465 1.063928 -175.636487 -0.199301 100.174927 -2.335200 4.786105 -11.774780 -7.418307 -0.623184 14.825337 0.363805 9.724072 2.708195 0.000000 -0.000000 0.000000 -3.530643 1.597484 -42.074033 -1.106304 -7.084824 41.352037 6.381510 -5.896608 -1.896910 0.000000 -0.000000 0.000000 -0.196510 -4.673458 30.813994 -0.428827 -0.316196 2.121503 0.502873 -1.336250 3.041319 0.539795 1.249818 -5.530236 4.974002 3.270007 -11.271363 -32.247802 -2.544299 5.653654 -52.943317 -1.152768 9.680885 12.699556 -32.144599 -8.072970 6.502699 -3.646672 -11.483542 27.867943 8.304034 6.080968 54.192488 2.910973 14.050849 -10.448753 27.204318 -4.672655 3.370661 3.894115 -5.509619 
-0.275700 -0.581366 1.061553 -175.043053 -0.431927 99.791755 -2.161514 6.034658 -8.798856 -7.344929 -1.089295 13.995372 0.047419 9.469186 2.357662 0.000000 -0.000000 0.000000 -3.543583 0.557793 -42.636434 -1.045446 -7.250415 31.674021 8.276612 -5.133559 5.122532 0.000000 -0.000000 0.000000 -0.022317 -4.995514 30.470061 -0.581185 -0.450094 2.450878 0.665396 -1.484031 3.022257 0.313806 0.777290 -5.315052 5.178957 3.699593 -11.318128 -32.178872 -2.315443 5.863882 -53.105393 -1.632071 9.489325 12.499889 -31.452525 -7.989112 6.414088 -4.059686 -10.677006 27.811187 7.910398 6.272718 54.207807 3.117435 13.921583 -10.186772 26.455233 -4.902229 3.190759 3.842862 -4.818851 
-0.274129 -0.555509 1.058629 -174.487409 -0.803549 99.590788 -1.964808 6.962346 -6.632236 -7.447660 -1.249355 13.448495 -0.130774 9.118677 2.126128 0.000000 -0.000000 0.000000 -3.552428 -0.590339 -42.537493 -0.957186 -7.716093 24.055076 9.682758 -5.113104 12.291074 0.000000 -0.000000 0.000000 0.039286 -5.146239 29.956911 -0.680873 -0.653476 2.844996 0.771985 -1.624572 2.988467 0.055047 0.200213 -5.048298 5.388837 4.206615 -11.423770 -32.195111 -2.095184 6.134157 -53.128170 -2.037256 9.290050 12.331229 -31.036519 -7.811006 6.189233 -4.471187 -9.980126 27.688343 7.576048 6.388648 54.246785 3.306248 13.829521 -9.928815 25.859575 -5.179551 3.300433 3.791927 -4.411928 
-0.271703 -0.519322 1.053058 -173.455487 -1.427330 99.243726 -1.442395 8.171226 -3.656340 -7.758920 -1.563238 12.917188 -0.638537 8.409887 2.029975 0.000000 -0.000000 0.000000 -3.780670 -2.411677 -41.601898 -0.396859 -9.750037 14.648645 10.741639 -5.782553 20.260060 0.000000 -0.000000 0.000000 0.178767 -5.379288 29.309248 -0.844591 -1.006767 3.333779 0.894876 -1.873459 2.912552 -0.233034 -0.603535 -4.571094 5.660351 4.750122 -11.671779 -32.203032 -1.804226 6.552178 -53.144870 -2.524486 8.915114 12.065392 -30.557368 -7.456104 5.584534 -5.022699 -9.255774 27.448470 7.120768 6.546364 54.401966 3.471963 13.522356 -9.634155 25.198913 -5.469741 3.580150 3.720575 -3.979839 
-0.268927 -0.480905 1.045728 -172.051079 -1.950849 98.599173 -0.480313 9.244955 -0.464282 -8.044390 -2.313691 12.888615 -1.458085 7.793934 1.807746 0.000000 -0.000000 0.000000 -4.244741 -4.275350 -40.427251 0.614749 -13.276198 9.629334 10.640282 -7.052920 24.659428 0.000000 -0.000000 0.000000 0.476435 -5.824856 28.944475 -0.981925 -1.283924 3.736007 0.993853 -2.173400 2.861597 -0.373202 -1.318366 -4.163991 5.777893 5.009511 -11.772895 -32.179166 -1.642420 6.983961 -53.266131 -2.864262 8.378549 11.851239 -30.222389 -7.037616 5.107929 -5.348113 -8.944626 27.265704 6.844209 6.652716 54.505633 3.410739 12.953460 -9.417530 24.780592 -5.434930 3.724069 3.682465 -3.258269 
-0.265640 -0.440941 1.037249 -170.757647 -2.381583 97.939162 0.554023 10.091879 2.391706 -8.053314 -3.197678 13.683078 -2.077831 7.633281 1.337578 0.000000 -0.000000 0.000000 -4.594383 -5.325724 -40.367423 0.285157 -14.862160 11.413916 9.808668 -7.872502 26.444126 0.000000 -0.000000 0.000000 0.478145 -6.326832 28.533636 -0.880404 -1.322299 4.289451 1.079094 -2.428210 2.828913 -0.365891 -1.874322 -4.036431 5.663988 5.055430 -11.800682 -32.235790 -1.566324 7.301240 -53.335724 -2.947840 7.979314 11.688912 -30.168039 -6.599184 5.162666 -5.332505 -9.092123 27.267883 6.762846 6.642190 54.361486 3.286136 12.572198 -9.317949 24.521486 -5.291878 3.813317 3.608898 -2.755326 
-0.260474 -0.387822 1.025392 -169.414455 -2.761699 97.392726 2.039975 10.900165 5.409929 -7.902923 -4.136420 15.373241 -2.770611 7.917891 0.911064 0.000000 -0.000000 0.000000 -4.562466 -5.481283 -40.110957 -0.264549 -13.034901 16.977811 8.968380 -6.652436 23.652747 0.000000 -0.000000 0.000000 0.401609 -6.707328 27.382774 -0.486626 -1.416416 5.446570 0.983569 -2.674090 2.793894 0.050397 -1.882597 -4.130522 5.342883 4.476654 -11.855562 -32.472903 -1.595761 7.347113 -53.156317 -2.505698 7.873482 11.512037 -30.416171 -6.319963 5.509858 -4.938046 -9.438409 27.583939 6.627226 6.519117 53.917293 2.956696 12.174475 -9.279258 24.825921 -5.077842 3.690814 3.473360 -2.917690 
-0.255374 -0.343543 1.016028 -168.663444 -2.663427 97.453039 3.451118 11.186618 6.857379 -7.521520 -4.928273 17.395313 -3.831536 8.374987 1.381528 0.000000 -0.000000 0.000000 -3.796012 -4.806352 -39.469239 -0.170287 -12.065761 22.417538 5.826953 -5.315044 11.885886 0.000000 -0.000000 0.000000 0.819518 -7.037804 26.239222 -0.298371 -1.363293 5.881003 0.679768 -2.801252 3.002742 0.676760 -0.847135 -4.479831 4.950050 3.270258 -11.582229 -32.459506 -1.514624 7.155493 -53.186696 -1.969635 7.732756 11.348582 -30.704671 -5.997070 5.571001 -4.262149 -10.429805 27.822300 6.438525 6.546391 53.733870 2.435572 11.615885 -9.229168 25.925092 -3.858805 3.240654 3.457779 -3.889589 
-0.250246 -0.301736 1.012393 -168.818243 -1.752958 98.094594 4.417489 10.215622 6.226554 -6.546342 -4.683921 21.054969 -4.740855 9.763997 4.394075 0.000000 -0.000000 0.000000 -2.951426 -1.783773 -38.322258 -0.205826 -11.652680 25.284065 2.806494 -5.935389 3.636129 0.000000 -0.000000 0.000000 1.788954 -7.598864 26.038575 -0.198394 -0.828556 5.574255 0.364163 -2.727340 2.733050 0.759735 -0.141347 -4.911979 4.669082 2.937851 -11.312778 -33.049872 -1.508821 7.148317 -53.031342 -1.445786 7.722456 11.794918 -31.201828 -6.429273 5.110820 -3.795087 -11.049185 28.001261 6.722700 6.757944 53.401192 1.800034 11.756863 -9.487319 27.364114 -2.809399 2.630395 3.486440 -5.388767 
-0.245233 -0.264311 1.014610 -169.282212 -0.807482 99.225476 4.596801 8.115786 3.212241 -5.713975 -3.575031 27.060083 -4.730128 11.147976 8.257782 0.000000 -0.000000 0.000000 -1.884303 0.604564 -37.705224 0.021150 -10.084550 27.019882 1.221247 -6.223775 -0.428972 0.000000 -0.000000 0.000000 2.592371 -7.704660 25.642484 0.129636 -0.706969 5.540840 0.095860 -2.691171 2.360033 0.683980 0.316566 -5.494953 4.469488 3.291115 -10.967166 -33.561705 -1.646894 7.005781 -52.855747 -1.116997 8.161541 12.456661 -32.119567 -7.045892 4.605568 -3.466112 -11.480603 28.101545 7.115800 6.675234 53.092899 1.783413 12.260429 -9.878386 28.307787 -2.532588 2.503661 3.410176 -6.640741 
-0.240270 -0.230755 1.021488 -170.027830 -0.114060 100.430802 4.424924 5.328805 -0.637132 -4.931422 -1.817836 33.306429 -3.888509 11.946652 11.998088 0.000000 -0.000000 0.000000 -0.987989 1.875658 -36.854298 0.546674 -9.916852 27.370785 0.592918 -6.016262 -1.465176 0.000000 -0.000000 0.000000 3.104621 -7.103107 25.292127 0.372700 -0.894523 5.688111 -0.063853 -2.612919 1.921117 0.549583 0.256447 -5.748479 4.815755 3.816779 -11.080369 -33.819138 -1.991721 6.922737 -52.569940 -1.041849 8.714885 13.069992 -33.413137 -7.553007 4.107667 -3.341710 -11.824110 28.290811 7.563234 6.723370 52.900359 1.988516 12.706987 -10.391304 29.094757 -2.905830 2.293195 3.411362 -7.510067 
-0.235824 -0.199566 1.031178 -171.335988 0.412975 101.124113 4.260523 3.300965 -4.216215 -4.734415 -1.024251 38.671686 -3.367183 11.721184 13.160041 0.000000 -0.000000 0.000000 -0.042022 2.604684 -35.430856 1.079375 -9.205685 27.046207 0.989930 -5.378194 -0.750468 0.000000 -0.000000 0.000000 3.072561 -6.031185 25.777557 0.460594 -0.843621 5.544989 -0.042860 -2.396656 1.630101 0.491738 0.147278 -5.972527 5.249875 4.033997 -11.135481 -33.915495 -2.411488 6.712931 -52.314135 -1.081075 9.083743 13.610473 -34.551409 -8.046544 4.177979 -3.360169 -11.891708 28.382109 8.069064 6.742539 52.824862 2.084702 13.038388 -10.645825 29.851731 -3.039940 2.082756 3.572235 -7.798369 
